<svg width="24" height="24" viewBox="0 0 24 24" fill="none" xmlns="http://www.w3.org/2000/svg">
<path d="M20.7492 7.23747C20.4192 6.91497 19.8917 6.92247 19.5708 7.2508C19.2483 7.5808 19.255 8.10747 19.5842 8.42914C20.0817 8.91497 20.3333 9.41581 20.3333 9.91664C20.3333 11.6908 16.9117 13.6666 12 13.6666C7.08833 13.6666 3.66667 11.6908 3.66667 9.91664C3.66667 8.14247 7.08833 6.16663 12 6.16663C12.5342 6.16663 13.0692 6.1908 13.59 6.23913C14.0617 6.28413 14.4542 5.94413 14.4967 5.4858C14.5383 5.02747 14.2017 4.62163 13.7433 4.57913C13.1708 4.52746 12.5842 4.49996 12 4.49996C6.3925 4.49996 2 6.87914 2 9.91664V16.5833C2 19.6208 6.3925 22 12 22C17.6075 22 22 19.6208 22 16.5833V9.91664C22 8.96331 21.5667 8.03664 20.7492 7.23747ZM11.1667 20.3133C9.93583 20.2558 8.81333 20.0733 7.83333 19.8042V14.8575C8.85833 15.1058 9.98 15.2642 11.1667 15.315V20.3133ZM12.8333 15.315C14.02 15.2642 15.1417 15.1058 16.1667 14.8575V19.8042C15.1867 20.0733 14.0642 20.2558 12.8333 20.3133V15.315ZM3.66667 16.5833V12.9491C4.335 13.4941 5.1825 13.9658 6.16667 14.3433V19.2058C4.59083 18.4808 3.66667 17.5042 3.66667 16.5833ZM17.8333 19.2058V14.3433C18.8175 13.9658 19.665 13.4941 20.3333 12.9491V16.5833C20.3333 17.505 19.4092 18.4808 17.8333 19.2058ZM12.2442 9.71248L20.5883 2.21329C20.93 1.90746 21.4558 1.93246 21.7658 2.27579C22.0733 2.61829 22.045 3.14579 21.7033 3.4533L13.3592 10.9533C13.2 11.0958 13 11.1666 12.8017 11.1666C12.5742 11.1666 12.3467 11.0741 12.1817 10.8908C11.8742 10.5483 11.9025 10.02 12.2442 9.71248Z" fill="#666C6C"/>
</svg>
