<svg width="24" height="24" viewBox="0 0 24 24" fill="none" xmlns="http://www.w3.org/2000/svg">
<path d="M17.6318 15.3153C17.058 15.3139 16.4897 15.4266 15.9596 15.6467C15.4295 15.8669 14.9481 16.1902 14.5433 16.5979L12.0438 19.1047C11.658 19.4939 11.1991 19.8025 10.6935 20.0126C10.188 20.2227 9.6459 20.3302 9.09866 20.3288H4.60548C4.42061 20.3291 4.23981 20.2743 4.08599 20.1715C3.93217 20.0686 3.81225 19.9223 3.74141 19.751C3.67057 19.5798 3.65201 19.3913 3.68806 19.2094C3.72412 19.0276 3.81318 18.8605 3.94396 18.7295L4.26555 18.407C4.72974 18.634 5.25321 18.7095 5.76237 18.6227C6.27153 18.5359 6.74076 18.2913 7.1041 17.9232L12.3746 12.6414C12.7263 12.7362 13.0872 12.7922 13.451 12.8085C13.5227 12.8085 13.5952 12.8085 13.6685 12.8085C14.995 12.8075 16.267 12.2793 17.2061 11.3396L18.0392 10.504C18.5284 10.0125 18.9106 9.42452 19.1617 8.77731C19.4128 8.1301 19.5273 7.43769 19.498 6.74384C19.4702 6.04693 19.2965 5.3637 18.988 4.7386C18.6795 4.11351 18.2432 3.56055 17.7076 3.11572C16.7069 2.3208 15.4474 1.92713 14.1736 2.01113C12.8997 2.09513 11.7024 2.6508 10.8141 3.57028L10.2867 4.10004C9.64934 4.737 9.18505 5.52692 8.93801 6.39467C8.69097 7.26241 8.66941 8.17912 8.87538 9.05758L3.56987 14.3786C3.20736 14.7446 2.96658 15.2141 2.88052 15.7227C2.79446 16.2313 2.86733 16.7541 3.08914 17.2196L2.76588 17.5438C2.4007 17.9083 2.15174 18.3735 2.0506 18.8802C1.94945 19.3869 2.00068 19.9123 2.19778 20.3897C2.39487 20.8672 2.72896 21.2751 3.15763 21.5618C3.5863 21.8485 4.09024 22.001 4.60548 22H9.09866C9.86481 22.0021 10.6238 21.8517 11.3315 21.5575C12.0393 21.2633 12.6818 20.8312 13.2219 20.2862L15.7214 17.7794C16.0992 17.4005 16.5807 17.1425 17.1047 17.0379C17.6288 16.9334 18.1721 16.9871 18.6657 17.1921C19.1594 17.3972 19.5814 17.7445 19.8783 18.1901C20.1752 18.6357 20.3337 19.1595 20.3337 19.6954V22H22V19.6954C21.9985 18.5341 21.5377 17.4207 20.7188 16.5996C19.8999 15.7785 18.7898 15.3166 17.6318 15.3153ZM11.4665 5.27822L11.9939 4.74846C12.6782 4.05881 13.6065 3.66837 14.5766 3.66219C15.3276 3.65485 16.057 3.91447 16.6353 4.395C16.9932 4.69134 17.2848 5.05986 17.4914 5.47661C17.6979 5.89337 17.8147 6.34904 17.8342 6.81403C17.8535 7.27654 17.777 7.73804 17.6097 8.16947C17.4424 8.60089 17.1878 8.99289 16.862 9.32079L16.0288 10.1564C15.7015 10.4847 15.3095 10.741 14.8779 10.909C14.4464 11.0769 13.9846 11.1529 13.5222 11.132C13.0597 11.1111 12.6066 10.9938 12.1919 10.7875C11.7771 10.5813 11.4098 10.2906 11.1132 9.93411C10.5867 9.2521 10.3312 8.39843 10.3961 7.53834C10.4611 6.67826 10.8419 5.87292 11.4648 5.27822H11.4665ZM4.74795 15.5601L9.61022 10.6828C9.68603 10.7914 9.74685 10.9084 9.83267 11.0112C10.1092 11.3388 10.4258 11.6302 10.775 11.8785L5.92602 16.7416C5.76761 16.8941 5.55655 16.9793 5.33698 16.9793C5.11742 16.9793 4.90636 16.8941 4.74795 16.7416C4.59176 16.5849 4.50401 16.3724 4.50401 16.1509C4.50401 15.9293 4.59176 15.7168 4.74795 15.5601Z" fill="#666C6C"/>
</svg>
