<svg width="30" height="35" viewBox="0 0 30 35" fill="none" xmlns="http://www.w3.org/2000/svg">
<path fill-rule="evenodd" clip-rule="evenodd" d="M21.3198 0.0372079C21.1847 -0.0213901 21.1106 -0.0186545 21.0278 0.102769C20.945 0.224193 8.58611 21.4085 8.36642 21.788C8.14673 22.1675 8.14909 22.3708 8.46861 22.669C8.78167 22.961 9.95227 23.5317 9.9994 23.5546C9.9994 23.5546 11.1665 24.2289 11.5925 24.3263C12.0185 24.4236 12.1882 24.3116 12.3792 23.9169C12.5702 23.5222 23.1801 1.40995 23.2342 1.27332C23.2883 1.13668 23.249 1.07382 23.1247 0.994801L22.223 0.516414L22.223 0.516358L21.3198 0.0372079ZM10.417 13.7108L11.7175 14.5343L11.4575 15.0245L11.4574 15.0245L11.1974 15.5146L9.78634 14.8996C9.71846 15.0277 9.65565 15.0626 9.52287 15.0939C9.37173 15.1107 9.29382 15.0876 9.1602 15.0218C9.04467 14.9616 8.96492 14.8806 8.90755 14.7675C8.8502 14.6544 8.86674 14.5787 8.92072 14.4404L9.23608 13.8459L9.23609 13.8459L9.55141 13.2516C9.63566 13.1293 9.68909 13.0731 9.81488 13.0572C9.94067 13.0413 10.0525 13.0619 10.1671 13.1238C10.2965 13.1975 10.3593 13.2491 10.4302 13.3836C10.4787 13.5112 10.485 13.5827 10.417 13.7108ZM17.2369 14.6891L18.5066 15.1325C18.5574 15.0164 18.6098 14.9819 18.7234 14.9459C18.854 14.9214 18.9234 14.9364 19.0441 14.985C19.1487 15.0299 19.2235 15.0953 19.2809 15.19C19.3383 15.2848 19.3288 15.3519 19.2908 15.4759L19.055 16.0145L19.055 16.0145L18.8192 16.553C18.7538 16.6651 18.7109 16.7175 18.6023 16.7396C18.4938 16.7617 18.395 16.7511 18.2911 16.7046C18.1735 16.6489 18.1155 16.608 18.0449 16.4955C17.9943 16.3876 17.9841 16.3256 18.0349 16.2096L16.848 15.5772L17.0425 15.1332L17.0424 15.1331L17.2369 14.6891ZM15.8449 17.7664L17.1949 18.2379C17.2489 18.1145 17.3046 18.0778 17.4255 18.0395C17.5643 18.0135 17.6381 18.0294 17.7665 18.0811C17.8777 18.1288 17.9572 18.1984 18.0182 18.2991C18.0792 18.3999 18.0692 18.4712 18.0288 18.6031L17.778 19.1757L17.7781 19.1757L17.5273 19.7484C17.4577 19.8675 17.4122 19.9232 17.2967 19.9467C17.1813 19.9702 17.0763 19.9589 16.9658 19.9096C16.8408 19.8503 16.779 19.8068 16.704 19.6872C16.6502 19.5724 16.6393 19.5065 16.6934 19.3832L15.4314 18.7108L15.6381 18.2386L15.6381 18.2386L15.8449 17.7664ZM9.92709 17.624L8.68191 16.8355C8.74703 16.7129 8.74096 16.6444 8.69452 16.5223C8.62663 16.3935 8.56654 16.3441 8.44262 16.2735C8.33286 16.2142 8.2258 16.1945 8.10536 16.2097C7.98491 16.225 7.93376 16.2787 7.85309 16.3958L7.55114 16.965L7.55115 16.965L7.24921 17.5342C7.19753 17.6666 7.18168 17.7391 7.2366 17.8474C7.29153 17.9556 7.3679 18.0332 7.47852 18.0909C7.60645 18.1539 7.68105 18.1759 7.82577 18.1599C7.9529 18.1299 8.01304 18.0965 8.07803 17.9738L9.42916 18.5627L9.67814 18.0933L9.67813 18.0933L9.92709 17.624ZM6.41212 20.7206C6.1712 21.1657 6.0766 21.3404 5.91345 22.1155C5.72939 22.99 6.05787 24.0024 6.71652 24.5205C7.35565 25.0233 8.71401 25.6464 8.79391 25.6828L8.79402 25.6826L8.79558 25.6836L8.7976 25.6845L8.79748 25.6847C8.87248 25.7305 10.1501 26.5058 10.9248 26.753C11.7231 27.0078 12.7455 26.7121 13.3664 26.0693C13.9167 25.4996 14.0083 25.3233 14.2417 24.8742C14.2716 24.8167 14.3039 24.7546 14.3397 24.6867C15.0622 25.7183 15.526 26.5954 15.7343 27.7853C15.9426 28.9752 15.8481 29.4865 15.4675 30.6621C15.0869 31.8378 14.5072 32.3615 13.5367 33.096C11.9145 34.1944 10.501 34.3441 9.02176 34.259C7.54252 34.1739 6.18137 33.7461 4.87974 33.0611L4.87975 33.0611L4.83562 33.0375C3.56797 32.3597 2.83276 31.9666 1.94389 30.804C0.530577 28.9555 0.000174856 27.8739 0 25.9148C0.063965 24.6993 0.172457 23.9257 0.932472 22.9513C1.69249 21.9769 2.11389 21.4592 3.16482 21.1172C4.51313 20.6784 5.25312 20.5146 6.51243 20.5343C6.47637 20.6019 6.44315 20.6633 6.41233 20.7202L6.41223 20.7204L6.41212 20.7206ZM6.29635 30.3945L6.29484 30.3936L6.29477 30.3938C6.22606 30.3609 5.20696 29.87 4.80469 29.4432C4.38829 29.0014 4.19023 28.7174 4.5709 27.9998C4.95157 27.2823 5.28677 27.1403 5.93842 27.3061C6.5672 27.466 7.49655 27.9716 7.56102 28.0069L7.56098 28.0069L7.5635 28.0082L7.56456 28.0088L7.56458 28.0088C7.62995 28.0424 8.56966 28.5284 9.05471 28.9593C9.55741 29.4059 9.62779 29.763 9.24712 30.4806C8.86645 31.1982 8.52029 31.1934 7.92098 31.0964C7.342 31.0027 6.36404 30.4342 6.29833 30.3957L6.29842 30.3955L6.29635 30.3945ZM24.7472 2.42302C26.8823 6.09666 28.1673 8.82687 29.5464 12.7269C30.1656 15.0913 30.135 16.3587 29.5514 18.5232C29.5481 18.5353 29.5435 18.5477 29.538 18.559C28.2567 21.1982 27.8441 21.4423 26.219 22.4035L26.2123 22.4075C24.5781 23.3741 23.6643 20.3389 24.7621 19.6279C27.669 17.7453 26.0897 11.852 24.6624 6.52616C24.4356 5.67967 24.2126 4.84751 24.012 4.04808C24.0041 4.01623 24.0042 3.98334 24.0121 3.95148L24.3813 2.47476C24.4247 2.30102 24.6572 2.26817 24.7472 2.42302Z" fill="#00B7EB"/>
</svg>
