<svg width="20" height="14" viewBox="0 0 20 14" fill="none" xmlns="http://www.w3.org/2000/svg">
<mask id="path-1-inside-1_39_147" fill="white">
<path d="M19.8859 11.4282C19.922 11.4585 19.9506 11.4949 19.9702 11.5351C19.9898 11.5752 19.9999 11.6184 19.9999 11.6621C19.9999 11.7057 19.9898 11.7489 19.9702 11.7891C19.9506 11.8292 19.922 11.8656 19.8859 11.896L17.5781 13.9009C17.5431 13.9322 17.5013 13.9571 17.455 13.9741C17.4088 13.9912 17.3591 13.9999 17.3088 13.9999C17.2586 13.9999 17.2089 13.9912 17.1626 13.9741C17.1164 13.9571 17.0745 13.9322 17.0396 13.9009C17.0035 13.8705 16.9748 13.8342 16.9553 13.794C16.9357 13.7538 16.9256 13.7106 16.9256 13.667C16.9256 13.6234 16.9357 13.5802 16.9553 13.54C16.9748 13.4998 17.0035 13.4635 17.0396 13.4331L18.6839 11.9962H16.6261C15.5855 11.9962 14.5599 11.7801 13.6349 11.366C12.7099 10.9518 11.9123 10.3516 11.3084 9.61535L7.29856 4.73667C6.76416 4.08861 6.05982 3.56042 5.24381 3.19579C4.42779 2.83117 3.52357 2.64059 2.60594 2.63984H0.384641C0.282628 2.63984 0.184793 2.60463 0.112659 2.54196C0.0405246 2.4793 0 2.3943 0 2.30568C0 2.21706 0.0405246 2.13206 0.112659 2.0694C0.184793 2.00673 0.282628 1.97152 0.384641 1.97152H2.60594C3.64656 1.97152 4.6721 2.1876 5.5971 2.60174C6.5221 3.01589 7.31976 3.61612 7.9236 4.35239L11.9335 9.23107C12.4679 9.87913 13.1722 10.4073 13.9882 10.7719C14.8042 11.1366 15.7085 11.3271 16.6261 11.3279H18.6839L17.0396 9.89103C16.984 9.82668 16.9571 9.74708 16.9636 9.66685C16.9702 9.58661 17.0098 9.51113 17.0753 9.45425C17.1408 9.39738 17.2277 9.36292 17.32 9.35722C17.4124 9.35152 17.504 9.37495 17.5781 9.42321L19.8859 11.4282ZM11.2796 4.95387C11.3471 4.99575 11.4275 5.01903 11.5104 5.0207C11.5709 5.01974 11.6303 5.00638 11.6838 4.9817C11.7373 4.95702 11.7833 4.92173 11.8181 4.87868L11.9335 4.73667C12.4679 4.08861 13.1722 3.56042 13.9882 3.19579C14.8042 2.83117 15.7085 2.64059 16.6261 2.63984H18.6839L17.0396 4.07671C17.0035 4.10708 16.9748 4.14344 16.9553 4.18362C16.9357 4.2238 16.9256 4.26699 16.9256 4.31062C16.9256 4.35425 16.9357 4.39744 16.9553 4.43762C16.9748 4.4778 17.0035 4.51416 17.0396 4.54453C17.0745 4.57585 17.1164 4.60076 17.1626 4.61777C17.2089 4.63478 17.2586 4.64354 17.3088 4.64354C17.3591 4.64354 17.4088 4.63478 17.455 4.61777C17.5013 4.60076 17.5431 4.57585 17.5781 4.54453L19.8859 2.53959C19.922 2.50922 19.9506 2.47286 19.9702 2.43268C19.9898 2.3925 19.9999 2.34931 19.9999 2.30568C19.9999 2.26205 19.9898 2.21886 19.9702 2.17868C19.9506 2.1385 19.922 2.10214 19.8859 2.07177L17.5781 0.0668317C17.504 0.0185698 17.4124 -0.00486095 17.32 0.000841111C17.2277 0.00654318 17.1408 0.0409951 17.0753 0.0978723C17.0098 0.15475 16.9702 0.230235 16.9636 0.310469C16.9571 0.390703 16.984 0.470301 17.0396 0.534651L18.6839 1.97152H16.6261C15.5855 1.97152 14.5599 2.1876 13.6349 2.60174C12.7099 3.01589 11.9123 3.61612 11.3084 4.35239L11.193 4.48605C11.1632 4.52166 11.1418 4.56204 11.13 4.60487C11.1183 4.64769 11.1163 4.69212 11.1244 4.73559C11.1324 4.77906 11.1503 4.82073 11.1769 4.85819C11.2035 4.89565 11.2384 4.92816 11.2796 4.95387ZM7.95244 9.01387C7.91145 8.98798 7.86497 8.96937 7.81568 8.95914C7.76638 8.9489 7.71525 8.94722 7.6652 8.95421C7.61516 8.9612 7.5672 8.97671 7.52408 8.99985C7.48097 9.02299 7.44354 9.05331 7.41395 9.08905L7.29856 9.23107C6.76416 9.87913 6.05982 10.4073 5.24381 10.7719C4.42779 11.1366 3.52357 11.3271 2.60594 11.3279H0.384641C0.282628 11.3279 0.184793 11.3631 0.112659 11.4258C0.0405246 11.4884 0 11.5734 0 11.6621C0 11.7507 0.0405246 11.8357 0.112659 11.8983C0.184793 11.961 0.282628 11.9962 0.384641 11.9962H2.60594C3.64656 11.9962 4.6721 11.7801 5.5971 11.366C6.5221 10.9518 7.31976 10.3516 7.9236 9.61535L8.03899 9.48169C8.06879 9.44608 8.09021 9.4057 8.10199 9.36287C8.11378 9.32005 8.1157 9.27562 8.10766 9.23215C8.09962 9.18868 8.08177 9.14701 8.05513 9.10955C8.02849 9.07209 7.99359 9.03958 7.95244 9.01387Z"/>
</mask>
<path d="M19.8859 11.4282C19.922 11.4585 19.9506 11.4949 19.9702 11.5351C19.9898 11.5752 19.9999 11.6184 19.9999 11.6621C19.9999 11.7057 19.9898 11.7489 19.9702 11.7891C19.9506 11.8292 19.922 11.8656 19.8859 11.896L17.5781 13.9009C17.5431 13.9322 17.5013 13.9571 17.455 13.9741C17.4088 13.9912 17.3591 13.9999 17.3088 13.9999C17.2586 13.9999 17.2089 13.9912 17.1626 13.9741C17.1164 13.9571 17.0745 13.9322 17.0396 13.9009C17.0035 13.8705 16.9748 13.8342 16.9553 13.794C16.9357 13.7538 16.9256 13.7106 16.9256 13.667C16.9256 13.6234 16.9357 13.5802 16.9553 13.54C16.9748 13.4998 17.0035 13.4635 17.0396 13.4331L18.6839 11.9962H16.6261C15.5855 11.9962 14.5599 11.7801 13.6349 11.366C12.7099 10.9518 11.9123 10.3516 11.3084 9.61535L7.29856 4.73667C6.76416 4.08861 6.05982 3.56042 5.24381 3.19579C4.42779 2.83117 3.52357 2.64059 2.60594 2.63984H0.384641C0.282628 2.63984 0.184793 2.60463 0.112659 2.54196C0.0405246 2.4793 0 2.3943 0 2.30568C0 2.21706 0.0405246 2.13206 0.112659 2.0694C0.184793 2.00673 0.282628 1.97152 0.384641 1.97152H2.60594C3.64656 1.97152 4.6721 2.1876 5.5971 2.60174C6.5221 3.01589 7.31976 3.61612 7.9236 4.35239L11.9335 9.23107C12.4679 9.87913 13.1722 10.4073 13.9882 10.7719C14.8042 11.1366 15.7085 11.3271 16.6261 11.3279H18.6839L17.0396 9.89103C16.984 9.82668 16.9571 9.74708 16.9636 9.66685C16.9702 9.58661 17.0098 9.51113 17.0753 9.45425C17.1408 9.39738 17.2277 9.36292 17.32 9.35722C17.4124 9.35152 17.504 9.37495 17.5781 9.42321L19.8859 11.4282ZM11.2796 4.95387C11.3471 4.99575 11.4275 5.01903 11.5104 5.0207C11.5709 5.01974 11.6303 5.00638 11.6838 4.9817C11.7373 4.95702 11.7833 4.92173 11.8181 4.87868L11.9335 4.73667C12.4679 4.08861 13.1722 3.56042 13.9882 3.19579C14.8042 2.83117 15.7085 2.64059 16.6261 2.63984H18.6839L17.0396 4.07671C17.0035 4.10708 16.9748 4.14344 16.9553 4.18362C16.9357 4.2238 16.9256 4.26699 16.9256 4.31062C16.9256 4.35425 16.9357 4.39744 16.9553 4.43762C16.9748 4.4778 17.0035 4.51416 17.0396 4.54453C17.0745 4.57585 17.1164 4.60076 17.1626 4.61777C17.2089 4.63478 17.2586 4.64354 17.3088 4.64354C17.3591 4.64354 17.4088 4.63478 17.455 4.61777C17.5013 4.60076 17.5431 4.57585 17.5781 4.54453L19.8859 2.53959C19.922 2.50922 19.9506 2.47286 19.9702 2.43268C19.9898 2.3925 19.9999 2.34931 19.9999 2.30568C19.9999 2.26205 19.9898 2.21886 19.9702 2.17868C19.9506 2.1385 19.922 2.10214 19.8859 2.07177L17.5781 0.0668317C17.504 0.0185698 17.4124 -0.00486095 17.32 0.000841111C17.2277 0.00654318 17.1408 0.0409951 17.0753 0.0978723C17.0098 0.15475 16.9702 0.230235 16.9636 0.310469C16.9571 0.390703 16.984 0.470301 17.0396 0.534651L18.6839 1.97152H16.6261C15.5855 1.97152 14.5599 2.1876 13.6349 2.60174C12.7099 3.01589 11.9123 3.61612 11.3084 4.35239L11.193 4.48605C11.1632 4.52166 11.1418 4.56204 11.13 4.60487C11.1183 4.64769 11.1163 4.69212 11.1244 4.73559C11.1324 4.77906 11.1503 4.82073 11.1769 4.85819C11.2035 4.89565 11.2384 4.92816 11.2796 4.95387ZM7.95244 9.01387C7.91145 8.98798 7.86497 8.96937 7.81568 8.95914C7.76638 8.9489 7.71525 8.94722 7.6652 8.95421C7.61516 8.9612 7.5672 8.97671 7.52408 8.99985C7.48097 9.02299 7.44354 9.05331 7.41395 9.08905L7.29856 9.23107C6.76416 9.87913 6.05982 10.4073 5.24381 10.7719C4.42779 11.1366 3.52357 11.3271 2.60594 11.3279H0.384641C0.282628 11.3279 0.184793 11.3631 0.112659 11.4258C0.0405246 11.4884 0 11.5734 0 11.6621C0 11.7507 0.0405246 11.8357 0.112659 11.8983C0.184793 11.961 0.282628 11.9962 0.384641 11.9962H2.60594C3.64656 11.9962 4.6721 11.7801 5.5971 11.366C6.5221 10.9518 7.31976 10.3516 7.9236 9.61535L8.03899 9.48169C8.06879 9.44608 8.09021 9.4057 8.10199 9.36287C8.11378 9.32005 8.1157 9.27562 8.10766 9.23215C8.09962 9.18868 8.08177 9.14701 8.05513 9.10955C8.02849 9.07209 7.99359 9.03958 7.95244 9.01387Z" fill="white"/>
<path d="M19.8859 11.4282L-43.4095 84.2862L-42.8533 84.7694L-42.2898 85.2441L19.8859 11.4282ZM19.9999 11.6621H116.512H19.9999ZM19.8859 11.896L-42.2898 -61.92L-42.8533 -61.4453L-43.4095 -60.9621L19.8859 11.896ZM17.5781 13.9009L-45.7173 -58.9572L-46.276 -58.4719L-46.8271 -57.978L17.5781 13.9009ZM17.3088 13.9999V110.512V13.9999ZM17.0396 13.9009L81.4448 -57.978L80.3448 -58.9636L79.2153 -59.915L17.0396 13.9009ZM16.9256 13.667H-79.5866H16.9256ZM17.0396 13.4331L79.2153 87.249L79.8854 86.6846L80.5451 86.1081L17.0396 13.4331ZM18.6839 11.9962L82.1895 84.6712L275.805 -84.516H18.6839V11.9962ZM16.6261 11.9962V-84.516H16.6256L16.6261 11.9962ZM11.3084 9.61535L85.9337 -51.5866L85.9009 -51.6266L85.8681 -51.6666L11.3084 9.61535ZM7.29856 4.73667L81.8582 -56.5452L81.8091 -56.6049L81.76 -56.6645L7.29856 4.73667ZM2.60594 2.63984L2.68554 -93.8724L2.64574 -93.8724H2.60594V2.63984ZM2.60594 1.97152V98.4838H2.60639L2.60594 1.97152ZM7.9236 4.35239L-66.7017 65.5543L-66.6689 65.5943L-66.636 65.6343L7.9236 4.35239ZM11.9335 9.23107L-62.6262 70.513L-62.5771 70.5727L-62.5279 70.6323L11.9335 9.23107ZM16.6261 11.3279L16.5465 107.84L16.5863 107.84H16.6261V11.3279ZM18.6839 11.3279V107.84H275.805L82.1894 -61.3471L18.6839 11.3279ZM17.0396 9.89103L-56.0149 72.9597L-51.5783 78.0987L-46.4659 82.5661L17.0396 9.89103ZM17.5781 9.42321L80.8735 -63.4349L75.8454 -67.803L70.2649 -71.4391L17.5781 9.42321ZM11.2796 4.95387L-39.8521 86.8084L-39.7335 86.8825L-39.6147 86.9562L11.2796 4.95387ZM11.5104 5.0207L9.56786 101.513L11.305 101.548L13.0423 101.521L11.5104 5.0207ZM11.8181 4.87868L-63.0855 -55.9823L-63.157 -55.8943L-63.2283 -55.8061L11.8181 4.87868ZM11.9335 4.73667L-62.5279 -56.6645L-62.75 -56.3952L-62.9701 -56.1243L11.9335 4.73667ZM16.6261 2.63984V-93.8724H16.5863L16.5465 -93.8724L16.6261 2.63984ZM18.6839 2.63984L82.1895 75.3149L275.805 -93.8724H18.6839V2.63984ZM17.0396 4.07671L79.2153 77.8926L79.8854 77.3282L80.5451 76.7517L17.0396 4.07671ZM16.9256 4.31062H-79.5866H16.9256ZM17.0396 4.54453L81.4448 -67.3344L80.3448 -68.32L79.2153 -69.2714L17.0396 4.54453ZM17.5781 4.54453L-45.7173 -68.3136L-46.276 -67.8282L-46.8271 -67.3344L17.5781 4.54453ZM19.8859 2.53959L-42.2898 -71.2764L-42.8533 -70.8017L-43.4095 -70.3185L19.8859 2.53959ZM19.9999 2.30568H116.512H19.9999ZM19.8859 2.07177L-43.4095 74.9299L-42.8533 75.4131L-42.2898 75.8877L19.8859 2.07177ZM17.5781 0.0668317L80.8735 -72.7913L75.8454 -77.1594L70.2649 -80.7955L17.5781 0.0668317ZM17.0396 0.534651L-56.0149 63.6033L-51.5783 68.7423L-46.466 73.2097L17.0396 0.534651ZM18.6839 1.97152V98.4838H275.805L82.1895 -70.7035L18.6839 1.97152ZM16.6261 1.97152L16.6256 98.4838H16.6261V1.97152ZM11.3084 4.35239L84.3626 67.4214L85.16 66.4978L85.9337 65.5543L11.3084 4.35239ZM11.193 4.48605L-61.8612 -58.5829L-62.3432 -58.0246L-62.8167 -57.4589L11.193 4.48605ZM7.95244 9.01387L-43.5911 90.6097L-43.3855 90.7395L-43.1792 90.8684L7.95244 9.01387ZM7.41395 9.08905L-66.9354 -52.4478L-67.214 -52.1112L-67.4895 -51.7721L7.41395 9.08905ZM7.29856 9.23107L81.76 70.6323L81.982 70.3631L82.202 70.0922L7.29856 9.23107ZM2.60594 11.3279V107.84H2.64574L2.68554 107.84L2.60594 11.3279ZM2.60594 11.9962L2.60639 -84.516H2.60594V11.9962ZM7.9236 9.61535L-65.1312 -53.453L-65.9282 -52.5297L-66.7017 -51.5866L7.9236 9.61535ZM8.03899 9.48169L81.0937 72.55L81.5755 71.992L82.0487 71.4266L8.03899 9.48169ZM-42.2898 85.2441C-51.9857 77.0772 -60.5866 66.5428 -66.791 53.8091L106.731 -30.739C100.488 -43.5531 91.8297 -54.1601 82.0616 -62.3878L-42.2898 85.2441ZM-66.791 53.8091C-73.0264 41.012 -76.5123 26.6315 -76.5123 11.6621H116.512C116.512 -3.39464 113.006 -17.8615 106.731 -30.739L-66.791 53.8091ZM-76.5123 11.6621C-76.5123 -3.30762 -73.0262 -17.6881 -66.791 -30.485L106.731 54.0631C113.006 41.1859 116.512 26.719 116.512 11.6621H-76.5123ZM-66.791 -30.485C-60.5871 -43.2175 -51.9867 -53.7522 -42.2898 -61.92L82.0616 85.7119C91.8307 77.4834 100.488 66.876 106.731 54.0631L-66.791 -30.485ZM-43.4095 -60.9621L-45.7173 -58.9572L80.8735 86.759L83.1813 84.7541L-43.4095 -60.9621ZM-46.8271 -57.978C-37.3244 -66.4927 -26.6842 -72.6253 -15.8552 -76.6075L50.7653 104.556C61.6868 100.54 72.4106 94.3572 81.9833 85.7799L-46.8271 -57.978ZM-15.8552 -76.6075C-5.02927 -80.5886 6.21314 -82.5123 17.3088 -82.5123V110.512C28.505 110.512 39.8468 108.571 50.7653 104.556L-15.8552 -76.6075ZM17.3088 -82.5123C28.4045 -82.5123 39.6469 -80.5886 50.4729 -76.6075L-16.1476 104.556C-5.22915 108.571 6.11269 110.512 17.3088 110.512V-82.5123ZM50.4729 -76.6075C61.3007 -72.6257 71.9412 -66.4935 81.4448 -57.978L-47.3656 85.7799C-37.7921 94.3579 -27.0679 100.54 -16.1476 104.556L50.4729 -76.6075ZM79.2153 -59.915C88.9112 -51.7481 97.5121 -41.2138 103.717 -28.4801L-69.806 56.0681C-63.5624 68.8821 -54.9042 79.4892 -45.1361 87.7168L79.2153 -59.915ZM103.717 -28.4801C109.952 -15.6832 113.438 -1.30268 113.438 13.667H-79.5866C-79.5866 28.7239 -76.0803 43.1908 -69.806 56.0681L103.717 -28.4801ZM113.438 13.667C113.438 28.6362 109.952 43.0167 103.717 55.8141L-69.806 -28.7341C-76.0806 -15.8564 -79.5866 -1.38945 -79.5866 13.667H113.438ZM103.717 55.8141C97.5121 68.5477 88.9112 79.0821 79.2153 87.249L-45.1361 -60.3829C-54.9042 -52.1552 -63.5624 -41.5481 -69.806 -28.7341L103.717 55.8141ZM80.5451 86.1081L82.1895 84.6712L-44.8217 -60.6788L-46.466 -59.2419L80.5451 86.1081ZM18.6839 -84.516H16.6261V108.508H18.6839V-84.516ZM16.6256 -84.516C28.8042 -84.5161 41.2556 -82.0116 53.0736 -76.7203L-25.8038 99.4523C-12.1357 105.572 2.36672 108.509 16.6265 108.508L16.6256 -84.516ZM53.0736 -76.7203C64.9024 -71.4243 76.4446 -63.157 85.9337 -51.5866L-63.3169 70.8173C-52.62 83.8602 -39.4825 93.3279 -25.8038 99.4523L53.0736 -76.7203ZM85.8681 -51.6666L81.8582 -56.5452L-67.2611 66.0186L-63.2512 70.8973L85.8681 -51.6666ZM81.76 -56.6645C71.1451 -69.5372 58.1416 -78.8765 44.6171 -84.9198L-34.1294 91.3114C-46.022 85.9974 -57.6168 77.7144 -67.1629 66.1379L81.76 -56.6645ZM44.6171 -84.9198C31.1029 -90.9584 16.774 -93.8607 2.68554 -93.8724L2.52634 99.152C-9.72684 99.1419 -22.2473 96.6208 -34.1294 91.3114L44.6171 -84.9198ZM2.60594 -93.8724H0.384641V99.1521H2.60594V-93.8724ZM0.384641 -93.8724C21.836 -93.8724 44.6748 -86.5906 63.4081 -70.3161L-63.1828 75.4C-44.3053 91.7999 -21.2707 99.1521 0.384641 99.1521V-93.8724ZM63.4081 -70.3161C82.5703 -53.669 96.5122 -27.9358 96.5122 2.30568H-96.5122C-96.5122 32.7244 -82.4892 58.6276 -63.1828 75.4L63.4081 -70.3161ZM96.5122 2.30568C96.5122 32.547 82.5704 58.2803 63.4081 74.9275L-63.1828 -70.7887C-82.4893 -54.0161 -96.5122 -28.1129 -96.5122 2.30568H96.5122ZM63.4081 74.9275C44.6748 91.202 21.836 98.4838 0.384641 98.4838V-94.5407C-21.2707 -94.5407 -44.3053 -87.1885 -63.1828 -70.7887L63.4081 74.9275ZM0.384641 98.4838H2.60594V-94.5407H0.384641V98.4838ZM2.60639 98.4838C-9.57221 98.4838 -22.0236 95.9793 -33.8416 90.6881L45.0358 -85.4846C31.3678 -91.6041 16.8653 -94.5408 2.60549 -94.5407L2.60639 98.4838ZM-33.8416 90.6881C-45.6703 85.392 -57.2125 77.1248 -66.7017 65.5543L82.5489 -56.8495C71.852 -69.8925 58.7145 -79.3602 45.0358 -85.4846L-33.8416 90.6881ZM-66.636 65.6343L-62.6262 70.513L86.4931 -52.0508L82.4832 -56.9295L-66.636 65.6343ZM-62.5279 70.6323C-51.9131 83.5049 -38.9096 92.8443 -25.385 98.8875L53.3615 -77.3436C65.254 -72.0296 76.8488 -63.7467 86.3949 -52.1701L-62.5279 70.6323ZM-25.385 98.8875C-11.8709 104.926 2.45808 107.828 16.5465 107.84L16.7057 -85.1843C28.9588 -85.1742 41.4793 -82.653 53.3615 -77.3436L-25.385 98.8875ZM16.6261 107.84H18.6839V-85.1843H16.6261V107.84ZM82.1894 -61.3471L80.5451 -62.784L-46.4659 82.5661L-44.8216 84.0029L82.1894 -61.3471ZM90.0941 -53.1776C105.895 -34.8753 115.386 -9.74026 113.155 17.5357L-79.2273 1.79798C-81.4717 29.2344 -71.9265 54.5287 -56.0149 72.9597L90.0941 -53.1776ZM113.155 17.5357C110.937 44.6445 97.718 67.2419 80.3707 82.3123L-46.2201 -63.4038C-63.6983 -48.2196 -76.9965 -25.4713 -79.2273 1.79798L113.155 17.5357ZM80.3707 82.3123C63.312 97.1321 42.8386 104.478 23.2674 105.686L11.3727 -86.9716C-8.38327 -85.7518 -29.0305 -78.3373 -46.2201 -63.4038L80.3707 82.3123ZM23.2674 105.686C3.69397 106.894 -16.9598 102.111 -35.1087 90.2855L70.2649 -71.4391C51.9678 -83.3608 31.1308 -88.1915 11.3727 -86.9716L23.2674 105.686ZM-45.7174 82.2813L-43.4095 84.2862L83.1813 -61.4299L80.8735 -63.4349L-45.7174 82.2813ZM-39.6147 86.9562C-24.1626 96.5464 -7.03906 101.179 9.56786 101.513L13.4529 -91.472C29.894 -91.141 46.8568 -86.5549 62.1739 -77.0484L-39.6147 86.9562ZM13.0423 101.521C26.1617 101.312 39.5153 98.4319 52.1269 92.6114L-28.7593 -82.648C-16.2547 -88.4192 -3.01989 -91.273 9.9784 -91.4794L13.0423 101.521ZM52.1269 92.6114C64.7496 86.7857 76.9249 77.8554 86.8645 65.5635L-63.2283 -55.8061C-53.3584 -68.0119 -41.2751 -76.8717 -28.7593 -82.648L52.1269 92.6114ZM86.7217 65.7397L86.8371 65.5977L-62.9701 -56.1243L-63.0855 -55.9823L86.7217 65.7397ZM86.3949 66.1379C76.8488 77.7145 65.254 85.9974 53.3615 91.3114L-25.385 -84.9198C-38.9096 -78.8766 -51.913 -69.5372 -62.5279 -56.6645L86.3949 66.1379ZM53.3615 91.3114C41.4794 96.6208 28.9589 99.1419 16.7057 99.152L16.5465 -93.8724C2.45804 -93.8607 -11.8709 -90.9584 -25.385 -84.9198L53.3615 91.3114ZM16.6261 99.1521H18.6839V-93.8724H16.6261V99.1521ZM-44.8216 -70.0352L-46.466 -68.5983L80.5451 76.7517L82.1895 75.3149L-44.8216 -70.0352ZM-45.1361 -69.7392C-54.9055 -61.5105 -63.5631 -50.903 -69.806 -38.0904L103.717 46.4577C97.5128 59.1899 88.9125 69.7246 79.2153 77.8926L-45.1361 -69.7392ZM-69.806 -38.0904C-76.0802 -25.2135 -79.5866 -10.7466 -79.5866 4.31062H113.438C113.438 19.2806 109.952 33.661 103.717 46.4577L-69.806 -38.0904ZM-79.5866 4.31062C-79.5866 19.3676 -76.0803 33.8345 -69.806 46.7117L103.717 -37.8364C109.952 -25.0396 113.438 -10.6591 113.438 4.31062H-79.5866ZM-69.806 46.7117C-63.5629 59.5246 -54.9052 70.1319 -45.1361 78.3605L79.2153 -69.2714C88.9122 -61.1036 97.5126 -50.569 103.717 -37.8364L-69.806 46.7117ZM-47.3656 76.4235C-37.7924 85.0013 -27.0684 91.1835 -16.1476 95.1994L50.4729 -85.9639C61.3011 -81.9819 71.9415 -75.8496 81.4448 -67.3344L-47.3656 76.4235ZM-16.1476 95.1994C-5.22647 99.2155 6.1156 101.156 17.3088 101.156V-91.8687C28.4016 -91.8687 39.6442 -89.946 50.4729 -85.9639L-16.1476 95.1994ZM17.3088 101.156C28.5021 101.156 39.8441 99.2155 50.7653 95.1994L-15.8552 -85.9639C-5.02659 -89.946 6.21605 -91.8687 17.3088 -91.8687V101.156ZM50.7653 95.1994C61.6872 91.183 72.4109 85.0005 81.9833 76.4235L-46.8271 -67.3344C-37.3247 -75.8488 -26.6846 -81.9815 -15.8552 -85.9639L50.7653 95.1994ZM80.8735 77.4026L83.1813 75.3977L-43.4095 -70.3185L-45.7173 -68.3136L80.8735 77.4026ZM82.0616 76.3555C91.8307 68.127 100.488 57.5196 106.731 44.7067L-66.791 -39.8414C-60.5871 -52.5739 -51.9867 -63.1085 -42.2898 -71.2764L82.0616 76.3555ZM106.731 44.7067C113.006 31.8296 116.512 17.3628 116.512 2.30568H-76.5123C-76.5123 -12.6641 -73.0262 -27.0446 -66.791 -39.8414L106.731 44.7067ZM116.512 2.30568C116.512 -12.7513 113.006 -27.2182 106.731 -40.0954L-66.791 44.4527C-73.0262 31.6559 -76.5123 17.2754 -76.5123 2.30568H116.512ZM106.731 -40.0954C100.489 -52.9081 91.8308 -63.5155 82.0616 -71.7442L-42.2898 75.8877C-51.9869 67.7198 -60.5872 57.1851 -66.791 44.4527L106.731 -40.0954ZM83.1813 -70.7863L80.8735 -72.7913L-45.7173 72.9249L-43.4095 74.9299L83.1813 -70.7863ZM70.2649 -80.7955C51.9682 -92.7169 31.1313 -97.5479 11.3727 -96.328L23.2674 96.3297C3.69346 97.5381 -16.9602 92.754 -35.1087 80.9291L70.2649 -80.7955ZM11.3727 -96.328C-8.38286 -95.1083 -29.0302 -87.694 -46.2201 -72.7602L80.3707 72.9559C63.3117 87.7759 42.8382 95.1213 23.2674 96.3297L11.3727 -96.328ZM-46.2201 -72.7602C-63.6987 -57.5757 -76.9966 -34.8273 -79.2273 -7.5584L113.155 8.17934C110.937 35.2877 97.7183 57.8852 80.3707 72.9559L-46.2201 -72.7602ZM-79.2273 -7.5584C-81.4717 19.8783 -71.9264 45.1725 -56.0149 63.6033L90.0941 -62.534C105.894 -44.2319 115.386 -19.0969 113.155 8.17934L-79.2273 -7.5584ZM-46.466 73.2097L-44.8216 74.6465L82.1895 -70.7035L80.5451 -72.1404L-46.466 73.2097ZM18.6839 -94.5407H16.6261V98.4838H18.6839V-94.5407ZM16.6265 -94.5407C2.36671 -94.5408 -12.1357 -91.6042 -25.8038 -85.4846L53.0736 90.6881C41.2556 95.9793 28.8042 98.4838 16.6256 98.4838L16.6265 -94.5407ZM-25.8038 -85.4846C-39.4825 -79.3602 -52.62 -69.8925 -63.3169 -56.8495L85.9337 65.5543C76.4446 77.1247 64.9024 85.392 53.0736 90.6881L-25.8038 -85.4846ZM-61.7458 -58.7166L-61.8612 -58.5829L84.2472 67.555L84.3626 67.4214L-61.7458 -58.7166ZM-62.8167 -57.4589C-71.3125 -47.3084 -78.0739 -34.989 -81.9228 -21.0034L104.183 30.2131C100.358 44.1131 93.639 56.3517 85.2027 66.431L-62.8167 -57.4589ZM-81.9228 -21.0034C-85.7855 -6.96757 -86.4523 7.83356 -83.7776 22.292L106.026 -12.8208C108.685 1.55067 108.022 16.2629 104.183 30.2131L-81.9228 -21.0034ZM-83.7776 22.292C-81.1102 36.7109 -75.3168 49.7634 -67.4768 60.7885L89.8306 -51.0721C97.6173 -40.1219 103.375 -27.1528 106.026 -12.8208L-83.7776 22.292ZM-67.4768 60.7885C-59.67 71.7672 -50.0775 80.4209 -39.8521 86.8084L62.4113 -76.9006C72.5544 -70.5646 82.077 -61.9759 89.8306 -51.0721L-67.4768 60.7885ZM59.496 -72.5819C49.3016 -79.0217 38.377 -83.2652 27.4425 -85.5364L-11.8112 103.455C-22.647 101.204 -33.4787 96.9976 -43.5911 90.6097L59.496 -72.5819ZM27.4425 -85.5364C16.5061 -87.8078 5.30073 -88.164 -5.68043 -86.6309L21.0108 104.539C10.1298 106.058 -0.973382 105.706 -11.8112 103.455L27.4425 -85.5364ZM-5.68043 -86.6309C-16.6606 -85.0978 -27.6889 -81.635 -38.115 -76.0395L53.1632 94.0392C42.8233 99.5884 31.891 103.02 21.0108 104.539L-5.68043 -86.6309ZM-38.115 -76.0395C-48.5488 -70.4398 -58.5164 -62.6197 -66.9354 -52.4478L81.7633 70.6259C73.4035 80.7263 63.5107 88.4858 53.1632 94.0392L-38.115 -76.0395ZM-67.4895 -51.7721L-67.6049 -51.6301L82.202 70.0922L82.3174 69.9502L-67.4895 -51.7721ZM-67.1629 -52.1701C-57.6168 -63.7466 -46.0221 -72.0296 -34.1294 -77.3436L44.6171 98.8875C58.1417 92.8442 71.1452 83.5049 81.76 70.6323L-67.1629 -52.1701ZM-34.1294 -77.3436C-22.2473 -82.653 -9.7268 -85.1742 2.52634 -85.1843L2.68554 107.84C16.7739 107.828 31.1029 104.926 44.6171 98.8875L-34.1294 -77.3436ZM2.60594 -85.1843H0.384641V107.84H2.60594V-85.1843ZM0.384641 -85.1843C-21.271 -85.1843 -44.3054 -77.832 -63.1828 -61.4323L63.4081 84.2838C44.675 100.558 21.8363 107.84 0.384641 107.84V-85.1843ZM-63.1828 -61.4323C-82.4892 -44.6598 -96.5122 -18.7566 -96.5122 11.6621H96.5122C96.5122 41.9035 82.5703 67.6367 63.4081 84.2838L-63.1828 -61.4323ZM-96.5122 11.6621C-96.5122 42.0805 -82.4894 67.9838 -63.1828 84.7564L63.4081 -60.9597C82.5705 -44.3124 96.5122 -18.5791 96.5122 11.6621H-96.5122ZM-63.1828 84.7564C-44.3047 101.157 -21.27 108.508 0.384641 108.508V-84.516C21.8352 -84.516 44.6743 -77.2347 63.4081 -60.9597L-63.1828 84.7564ZM0.384641 108.508H2.60594V-84.516H0.384641V108.508ZM2.60549 108.508C16.8653 108.509 31.3677 105.572 45.0358 99.4523L-33.8416 -76.7203C-22.0235 -82.0116 -9.5722 -84.5161 2.60639 -84.516L2.60549 108.508ZM45.0358 99.4523C58.7145 93.328 71.852 83.8603 82.5489 70.8173L-66.7017 -51.5866C-57.2125 -63.157 -45.6703 -71.4243 -33.8416 -76.7203L45.0358 99.4523ZM80.9783 72.6837L81.0937 72.55L-65.0158 -53.5866L-65.1312 -53.453L80.9783 72.6837ZM82.0487 71.4266C90.543 61.2779 97.3054 48.9589 101.155 34.9711L-84.9508 -16.2453C-81.125 -30.1475 -74.4055 -42.3857 -65.9707 -52.4633L82.0487 71.4266ZM101.155 34.9711C105.018 20.9328 105.684 6.13164 103.01 -8.32423L-86.7943 26.7885C-89.4525 12.4196 -88.7906 -2.29271 -84.9508 -16.2453L101.155 34.9711ZM103.01 -8.32423C100.342 -22.742 94.5495 -35.7947 86.7089 -46.8207L-70.5986 65.0399C-78.3859 54.0887 -84.1432 41.1194 -86.7943 26.7885L103.01 -8.32423ZM86.7089 -46.8207C78.9022 -57.7991 69.31 -66.4529 59.0841 -72.8406L-43.1792 90.8684C-53.3228 84.5321 -62.8453 75.9433 -70.5986 65.0399L86.7089 -46.8207Z" fill="#FCFFFD" mask="url(#path-1-inside-1_39_147)"/>
</svg>
