<svg width="24" height="24" viewBox="0 0 24 24" fill="none" xmlns="http://www.w3.org/2000/svg">
<path d="M13 7L11.8845 4.76892C11.5634 4.1268 11.4029 3.80573 11.1634 3.57116C10.9516 3.36373 10.6963 3.20597 10.4161 3.10931C10.0992 3 9.74021 3 9.02229 3H5.2C4.0799 3 3.51984 3 3.09202 3.21799C2.71569 3.40973 2.40973 3.71569 2.21799 4.09202C2 4.51984 2 5.0799 2 6.2V7M2 7H17.2C18.8802 7 19.7202 7 20.362 7.32698C20.9265 7.6146 21.3854 8.07354 21.673 8.63803C22 9.27976 22 10.1198 22 11.8V16.2C22 17.8802 22 18.7202 21.673 19.362C21.3854 19.9265 20.9265 20.3854 20.362 20.673C19.7202 21 18.8802 21 17.2 21H6.8C5.11984 21 4.27976 21 3.63803 20.673C3.07354 20.3854 2.6146 19.9265 2.32698 19.362C2 18.7202 2 17.8802 2 16.2V7Z" stroke="#666C6C" stroke-width="1.5" stroke-linecap="round" stroke-linejoin="round"/>
<path d="M10.6301 16.4896V11.3852C10.6301 11.1741 10.6301 11.0686 10.6685 10.983C10.7023 10.9075 10.7568 10.8432 10.8257 10.7974C10.9038 10.7454 11.0079 10.7281 11.2161 10.6934L15.0736 10.0505C15.3546 10.0037 15.4951 9.98024 15.6046 10.0209C15.7006 10.0566 15.7812 10.1248 15.8322 10.2137C15.8903 10.315 15.8903 10.4575 15.8903 10.7423V15.6129M10.6301 16.4896C10.6301 17.2159 10.0413 17.8047 9.31505 17.8047C8.58877 17.8047 8 17.2159 8 16.4896C8 15.7633 8.58877 15.1746 9.31505 15.1746C10.0413 15.1746 10.6301 15.7633 10.6301 16.4896ZM15.8903 15.6129C15.8903 16.3392 15.3015 16.928 14.5752 16.928C13.849 16.928 13.2602 16.3392 13.2602 15.6129C13.2602 14.8866 13.849 14.2979 14.5752 14.2979C15.3015 14.2979 15.8903 14.8866 15.8903 15.6129Z" stroke="#666C6C" stroke-width="1.5" stroke-linecap="round" stroke-linejoin="round"/>
</svg>
